# xmcd
#
# Track frame offsets:
#	150
#	15556
#	30250
#	45564
#	60042
#	74999
#	89623
#	104677
#	119161
#	131076
#	144018
#	157328
#	171812
#	184503
#	198597
#	214791
#	228468
#	242664
#	256594
#	269011
#
# Disc length: 3761 seconds
#
# Revision: 0
# Processed by: cddbd v1.5.2PL0 Copyright (c) Steve Scherf et al.
# Submitted via: EasyCDDAExtractor 12.1.0.1
#
DISCID=240eaf14
DTITLE=Vera Lynn - 100 Hits Legends
DYEAR=2010
DGENRE=Country
TTITLE0=We'll Meet Again
TTITLE1=(There'll Be Bluebirds Over) The White Cliffs of Dover
TTITLE2=Yours
TTITLE3=It's A Lovely Day Tomorrow
TTITLE4=Wishing (Will Make It So)
TTITLE5=Wish Me Luck As You Wave Me Goodbye
TTITLE6=There's A Land of Begin Again
TTITLE7=A Nightingale Sang In Berkeley Square
TTITLE8=Be Like The Kettle and Sing
TTITLE9=Who's Taking You Home Tonight
TTITLE10=Jealousy
TTITLE11=More And More
TTITLE12=The General's Fast Asleep
TTITLE13=Harbour Lights
TTITLE14=We Three (My Echo, My Shadow And Me)
TTITLE15=A Star Fell Out Of Heaven
TTITLE16=Cinderella, Stay In My Arms
TTITLE17=I'm In The Mood For Love
TTITLE18=It's A Sin To Tell A Lie
TTITLE19=Goodnight Children Everywhere
EXTD=
EXTT0=
EXTT1=
EXTT2=
EXTT3=
EXTT4=
EXTT5=
EXTT6=
EXTT7=
EXTT8=
EXTT9=
EXTT10=
EXTT11=
EXTT12=
EXTT13=
EXTT14=
EXTT15=
EXTT16=
EXTT17=
EXTT18=
EXTT19=
PLAYORDER=
